<?xml version="1.0" encoding="utf-8"?>
<svg width="1359.000000pt" height="489.000000pt" viewBox="0 0 1359.000000 489.000000" preserveAspectRatio="xMidYMid meet" xmlns="http://www.w3.org/2000/svg">
  <defs/>
  <g transform="translate(0.000000,489.000000) scale(0.100000,-0.100000)" style="fill: rgb(0, 0, 0); stroke: none;">
    <path d="M2253 4515 c-1051 -133 -1865 -920 -1972 -1907 -72 -656 200 -1326&#10;721 -1773 326 -281 704 -456 1153 -536 151 -27 481 -37 647 -20 271 28 562&#10;112 809 232 l141 69 4478 0 c3140 0 4487 3 4507 11 39 14 78 53 97 97 23 53&#10;509 3272 503 3339 -5 68 -44 128 -100 154 -41 18 -147 19 -4747 19 l-4705 0&#10;-145 73 c-223 113 -431 181 -697 228 -155 28 -523 35 -690 14z m687 -205 c244&#10;-43 506 -134 703 -245 l97 -55 4715 0 4715 0 -1 -22 c0 -13 -109 -741 -242&#10;-1618 l-242 -1595 -4490 -5 -4490 -5 -145 -72 c-209 -104 -397 -165 -645 -209&#10;-80 -15 -153 -19 -360 -19 -287 0 -403 14 -623 76 -1213 341 -1827 1588 -1307&#10;2654 304 624 921 1042 1675 1135 134 16 498 5 640 -20z" style="fill: rgb(0, 113, 185);"/>
    <path d="M2330 3993 c-136 -14 -418 -83 -432 -106 -4 -7 -8 -22 -8 -35 0 -33&#10;206 -438 232 -457 18 -12 57 -15 203 -15 127 0 185 4 193 12 9 9 12 88 12 294&#10;0 244 -2 285 -16 298 -15 16 -88 19 -184 9z" style="fill: rgb(229, 23, 63);"/>
    <path d="M2606 3978 c-24 -34 -24 -559 0 -582 13 -13 45 -16 198 -16 170 0&#10;184 1 204 21 13 11 67 110 122 220 105 210 119 258 81 279 -38 20 -253 70&#10;-367 85 -167 22 -219 20 -238 -7z" style="fill: rgb(229, 23, 63);"/>
    <path d="M1646 3786 c-206 -106 -438 -286 -444 -342 -2 -18 3 -36 11 -42 11&#10;-9 114 -12 393 -10 l379 3 -1 45 c-1 36 -20 81 -93 223 -81 156 -95 177 -117&#10;177 -13 0 -71 -24 -128 -54z" style="fill: rgb(229, 23, 63);"/>
    <path d="M3316 3818 c-8 -13 -54 -103 -102 -200 -80 -160 -87 -179 -76 -202&#10;l12 -26 379 0 c366 0 381 1 391 19 5 11 10 28 10 38 0 23 -132 138 -253 221&#10;-104 71 -295 172 -326 172 -11 0 -27 -10 -35 -22z" style="fill: rgb(229, 23, 63);"/>
    <path d="M5260 3580 c-133 -28 -269 -137 -328 -263 -37 -77 -49 -132 -117&#10;-542 -86 -521 -90 -628 -30 -731 83 -142 339 -187 533 -93 77 37 169 121 204&#10;186 39 71 108 346 108 429 l0 24 -177 -2 -178 -3 -22 -130 c-44 -255 -52 -275&#10;-113 -275 -41 0 -51 28 -40 116 24 183 151 928 165 961 9 21 21 41 28 45 18&#10;12 62 9 75 -4 17 -17 15 -41 -18 -248 -16 -102 -30 -188 -30 -192 0 -5 81 -8&#10;179 -8 l179 0 11 63 c50 280 51 432 5 518 -32 59 -94 110 -164 134 -54 20&#10;-208 28 -270 15z"/>
    <path d="M9660 3580 c-81 -17 -184 -76 -239 -135 -101 -111 -119 -169 -201&#10;-667 -69 -414 -83 -537 -69 -612 27 -149 113 -232 268 -257 204 -34 408 69&#10;498 252 38 76 70 228 137 644 54 334 65 438 54 517 -22 162 -133 255 -316 263&#10;-48 2 -107 0 -132 -5z m98 -320 c3 -42 -120 -822 -153 -976 -17 -78 -40 -108&#10;-77 -102 -20 3 -23 9 -26 50 -3 39 89 635 144 940 19 102 42 141 83 136 23 -3&#10;26 -8 29 -48z"/>
    <path d="M5916 3533 c-11 -55 -256 -1563 -256 -1578 0 -13 26 -15 178 -15&#10;l178 0 55 338 55 337 52 3 c29 2 52 -1 52 -7 0 -11 -98 -617 -105 -648 l-5&#10;-23 180 0 c178 0 180 0 185 23 5 22 253 1533 258 1572 2 19 -4 20 -178 20&#10;l-180 0 -47 -285 c-25 -157 -47 -286 -47 -287 -1 -2 -23 -3 -51 -3 -33 0 -50&#10;4 -50 13 0 6 20 135 45 285 25 151 45 275 45 278 0 2 -81 4 -179 4 l-179 0 -6&#10;-27z"/>
    <path d="M6976 3508 c-9 -29 -104 -372 -211 -763 -108 -390 -202 -731 -210&#10;-757 l-14 -48 188 0 187 0 34 143 35 142 63 3 62 3 -1 -28 c0 -15 -6 -81 -13&#10;-145 l-12 -118 183 0 c101 0 183 4 183 8 0 38 50 1413 55 1500 l6 112 -260 0&#10;-260 0 -15 -52z m199 -667 c-14 -166 -25 -309 -25 -317 0 -11 -15 -14 -61 -14&#10;l-61 0 6 33 c3 17 40 159 81 314 41 155 75 285 75 289 0 4 2 5 5 2 3 -3 -6&#10;-141 -20 -307z"/>
    <path d="M7775 3539 c-3 -13 -61 -368 -130 -789 -69 -421 -127 -775 -130 -788&#10;l-5 -22 182 2 182 3 58 355 c32 195 62 357 66 361 4 4 23 2 42 -4 33 -11 35&#10;-15 38 -60 2 -38 -71 -538 -93 -634 l-5 -23 168 0 168 0 43 260 c23 143 46&#10;293 50 333 13 120 -21 194 -109 230 l-34 15 44 12 c75 20 107 46 139 113 45&#10;92 66 209 66 362 0 124 -1 132 -27 177 -55 92 -104 105 -458 114 l-249 7 -6&#10;-24z m370 -269 c40 -15 46 -47 30 -152 -25 -159 -48 -198 -113 -198 l-29 0 30&#10;180 c32 189 32 189 82 170z"/>
    <path d="M8715 3538 c-3 -13 -61 -369 -130 -793 -69 -423 -127 -778 -129 -788&#10;-4 -16 13 -17 287 -15 l291 3 23 140 c12 77 23 148 23 158 0 15 -12 17 -105&#10;17 -65 0 -105 4 -105 10 0 12 197 1222 206 1263 l6 27 -181 0 c-179 0 -181 0&#10;-186 -22z"/>
    <path d="M10246 3538 c-10 -46 -46 -277 -46 -292 0 -14 15 -16 105 -16 104 0&#10;105 0 100 -22 -7 -31 -205 -1243 -205 -1257 0 -8 56 -11 180 -11 99 0 180 4&#10;180 9 0 11 199 1227 205 1259 5 21 10 22 113 22 l108 0 25 160 c14 89 23 163&#10;20 165 -2 3 -179 5 -392 5 l-389 0 -4 -22z"/>
    <path d="M11055 3548 c-2 -7 -14 -69 -25 -138 -11 -69 -23 -137 -26 -152 l-6&#10;-28 106 0 c58 0 106 -4 106 -9 0 -12 -198 -1229 -205 -1259 l-5 -22 182 2 182&#10;3 51 315 c29 173 76 462 105 643 l54 327 107 0 107 0 6 28 c8 40 46 281 46&#10;292 0 16 -779 13 -785 -2z"/>
    <path d="M11920 3555 c0 -3 -58 -363 -130 -800 -71 -436 -130 -798 -130 -804&#10;0 -8 97 -11 310 -11 171 0 310 1 310 3 0 1 11 67 25 147 14 80 25 151 25 158&#10;0 9 -33 12 -131 12 l-131 0 6 28 c3 15 15 86 26 157 12 72 23 140 26 152 4 21&#10;10 22 116 25 l112 3 17 100 c9 55 19 121 23 148 l7 47 -110 0 c-61 0 -111 2&#10;-111 5 0 9 40 260 45 283 5 21 9 22 125 22 66 0 120 2 120 6 0 3 11 75 25 160&#10;14 85 25 157 25 159 0 3 -135 5 -300 5 -165 0 -300 -2 -300 -5z"/>
    <path d="M999 3218 c-70 -106 -155 -274 -165 -324 -4 -24 -1 -42 10 -59 l16&#10;-25 465 0 465 0 0 23 c0 13 -10 33 -22 44 -13 12 -164 114 -337 227 -226 149&#10;-321 206 -342 206 -26 0 -37 -11 -90 -92z" style="fill: rgb(229, 23, 63);"/>
    <path d="M1354 3296 c-3 -8 -4 -23 -2 -32 3 -15 428 -301 629 -424 l66 -41&#10;124 3 124 3 3 28 c2 19 -28 88 -104 235 -59 114 -114 215 -122 225 -14 16 -44&#10;17 -364 17 -294 0 -349 -2 -354 -14z" style="fill: rgb(229, 23, 63);"/>
    <path d="M2218 3303 c-10 -2 -21 -16 -25 -31 -5 -21 15 -67 98 -230 57 -112&#10;114 -214 126 -228 23 -25 61 -31 94 -14 18 10 19 24 19 248 0 172 -3 241 -12&#10;250 -12 12 -259 16 -300 5z" style="fill: rgb(229, 23, 63);"/>
    <path d="M2613 3303 c-18 -7 -19 -483 -1 -501 19 -19 65 -14 92 11 13 12 70&#10;110 125 218 105 204 119 249 82 269 -20 10 -274 13 -298 3z" style="fill: rgb(229, 23, 63);"/>
    <path d="M3042 3278 c-11 -18 -66 -124 -123 -235 -86 -167 -102 -205 -93 -220&#10;10 -16 28 -18 135 -21 l124 -2 342 222 c188 123 345 229 348 237 3 8 3 22 0&#10;32 -6 18 -24 19 -360 19 l-353 0 -20 -32z" style="fill: rgb(229, 23, 63);"/>
    <path d="M3673 3091 c-315 -209 -356 -242 -338 -271 4 -6 167 -10 464 -10 431&#10;0 459 1 474 18 29 32 20 82 -33 192 -52 105 -126 228 -163 268 -11 12 -32 22&#10;-46 22 -17 0 -144 -78 -358 -219z" style="fill: rgb(229, 23, 63);"/>
    <path d="M3440 2690 l-795 -5 -74 -43 -74 -43 -496 1 c-506 1 -575 -3 -653&#10;-38 -58 -26 -209 -116 -405 -242 -152 -98 -163 -107 -163 -136 0 -61 13 -64&#10;248 -64 182 0 213 2 227 16 10 11 14 25 11 38 -14 48 -18 144 -7 181 17 65 65&#10;132 113 157 35 18 58 23 123 22 123 0 211 -49 255 -140 20 -40 22 -55 15 -127&#10;-3 -45 -7 -102 -8 -127 l-2 -45 626 -3 c555 -2 628 0 639 13 11 13 11 29 0 85&#10;-16 83 -9 164 18 216 43 84 108 118 227 118 123 -1 203 -44 246 -131 21 -41&#10;24 -63 24 -153 0 -105 0 -105 25 -108 32 -4 167 77 497 297 243 163 248 167&#10;251 203 2 28 -2 40 -20 52 -12 9 -29 15 -38 14 -8 -2 -373 -5 -810 -8z"/>
    <path d="M2433 1998 c-19 -9 -141 -226 -224 -399 -26 -55 -21 -94 13 -103 35&#10;-9 271 -7 286 3 10 6 13 60 12 247 0 211 -2 240 -17 252 -20 14 -40 14 -70 0z" style="fill: rgb(0, 113, 185);"/>
    <path d="M2622 1994 c-22 -15 -22 -19 -22 -249 0 -221 1 -235 19 -245 11 -5&#10;78 -10 150 -10 118 0 133 2 151 20 11 11 20 25 20 32 0 24 -212 424 -236 446&#10;-30 26 -51 28 -82 6z" style="fill: rgb(0, 113, 185);"/>
    <path d="M2035 1991 c-34 -14 -669 -431 -682 -448 -9 -11 -9 -21 -2 -34 9 -18&#10;28 -19 354 -19 330 0 345 1 362 20 10 11 68 116 128 235 91 176 108 218 99&#10;232 -9 15 -28 18 -125 20 -63 1 -123 -2 -134 -6z" style="fill: rgb(0, 113, 185);"/>
    <path d="M2843 1989 c-7 -7 -13 -20 -13 -28 0 -18 192 -400 222 -444 l20 -27&#10;351 2 352 3 0 27 c0 25 -32 48 -340 250 l-340 223 -120 3 c-87 2 -123 0 -132&#10;-9z" style="fill: rgb(0, 113, 185);"/>
    <path d="M859 1980 c-9 -5 -20 -21 -23 -35 -18 -73 196 -455 255 -455 28 0&#10;687 437 694 461 4 10 3 23 0 29 -8 13 -904 13 -926 0z" style="fill: rgb(0, 113, 185);"/>
    <path d="M3344 1975 c-4 -8 -3 -22 0 -30 8 -22 655 -448 687 -453 23 -3 33 4&#10;67 50 90 121 192 325 192 384 0 66 12 64 -489 64 -392 0 -452 -2 -457 -15z" style="fill: rgb(0, 113, 185);"/>
    <path d="M5750 1769 c-72 -12 -140 -48 -166 -87 -21 -31 -42 -120 -66 -287&#10;-14 -98 -5 -120 65 -157 36 -20 57 -23 157 -23 103 0 121 3 171 26 80 38 97&#10;67 125 217 40 213 31 261 -53 295 -50 20 -165 28 -233 16z m95 -99 c11 -17&#10;-48 -331 -65 -353 -22 -27 -50 -16 -50 18 0 44 52 319 62 333 12 14 44 16 53&#10;2z"/>
    <path d="M6828 1770 c-100 -16 -171 -65 -188 -132 -20 -74 -50 -253 -50 -299&#10;0 -41 4 -51 34 -77 102 -90 386 -59 449 48 17 28 54 213 64 313 5 60 4 64 -25&#10;93 -49 49 -168 72 -284 54z m96 -98 c6 -11 -50 -326 -63 -351 -12 -22 -28 -26&#10;-49 -12 -11 6 -8 41 17 180 17 94 33 176 36 181 7 12 52 13 59 2z"/>
    <path d="M8178 1770 c-115 -18 -177 -76 -178 -168 0 -63 21 -85 134 -140 85&#10;-42 107 -57 112 -78 13 -52 -39 -105 -73 -72 -11 11 -12 24 -5 56 5 22 7 43 4&#10;47 -3 3 -49 5 -103 5 l-98 0 -6 -52 c-9 -75 5 -105 62 -130 66 -29 198 -36&#10;283 -14 110 29 139 60 147 159 7 82 -11 104 -132 162 -108 52 -122 65 -109&#10;103 7 21 16 27 39 27 29 0 30 -2 27 -37 l-4 -38 100 0 c111 0 112 1 112 69 0&#10;65 -54 96 -185 105 -38 2 -96 1 -127 -4z"/>
    <path d="M4820 1753 c0 -5 -20 -123 -45 -263 -25 -140 -45 -258 -45 -262 0 -5&#10;42 -8 94 -8 82 0 95 2 99 18 3 9 15 76 27 147 26 160 38 194 39 109 1 -33 4&#10;-109 8 -167 l6 -107 67 0 67 0 64 165 c34 91 64 163 66 162 1 -2 -10 -76 -26&#10;-165 l-28 -162 97 0 97 0 42 248 c24 136 45 257 48 270 l5 22 -145 0 -145 0&#10;-43 -117 -44 -118 -7 50 c-3 28 -7 80 -7 118 l-1 67 -145 0 c-80 0 -145 -3&#10;-145 -7z"/>
    <path d="M6130 1748 c0 -7 -3 -30 -6 -50 l-7 -38 62 0 c52 0 61 -3 61 -18 0&#10;-10 -16 -107 -35 -215 -19 -108 -35 -199 -35 -202 0 -3 49 -5 109 -5 l109 0&#10;17 98 c9 53 27 151 39 217 l21 120 66 3 c66 3 67 3 73 34 15 73 33 68 -234 68&#10;-185 0 -240 -3 -240 -12z"/>
    <path d="M7245 1748 c-2 -7 -22 -123 -45 -258 -23 -135 -43 -251 -46 -258 -3&#10;-10 21 -12 108 -10 l112 3 21 120 c13 79 25 120 33 119 6 -1 19 -2 27 -2 19&#10;-2 19 -47 0 -149 -8 -43 -15 -82 -15 -86 0 -4 46 -6 102 -5 l102 3 18 100 c10&#10;55 16 110 13 123 -3 13 -20 30 -41 39 l-35 17 37 11 c50 14 77 58 78 130 1&#10;102 -31 115 -279 115 -140 0 -187 -3 -190 -12z m259 -125 c-1 -50 -17 -73 -51&#10;-73 -18 0 -23 4 -19 18 2 9 8 36 11 60 6 39 9 43 33 40 25 -3 27 -7 26 -45z"/>
    <path d="M8580 1756 c0 -4 -20 -121 -45 -262 -25 -140 -45 -259 -45 -264 0 -6&#10;46 -10 109 -10 l108 0 18 109 18 109 86 4 c156 8 193 44 195 192 1 75 0 79&#10;-27 100 -26 19 -43 21 -223 24 -107 2 -194 1 -194 -2z m258 -94 c18 -12 4 -90&#10;-20 -114 -18 -18 -49 -22 -49 -5 -1 4 2 34 6 67 6 53 10 60 28 60 12 0 28 -4&#10;35 -8z"/>
    <path d="M9081 1509 c-24 -139 -46 -260 -48 -270 -5 -18 4 -19 185 -19 212 0&#10;193 -6 207 73 l6 37 -81 0 -82 0 6 30 c3 17 9 44 12 60 6 30 6 30 74 30 l68 0&#10;6 31 c13 68 12 69 -60 69 l-65 0 7 48 c3 26 8 50 11 55 2 4 35 7 73 7 38 0 71&#10;3 73 8 3 4 8 26 12 50 l7 42 -184 0 -183 0 -44 -251z"/>
    <path d="M9555 1738 c-11 -52 -85 -484 -85 -500 0 -17 15 -18 190 -18 174 0&#10;190 1 190 18 0 9 3 34 6 55 l7 37 -80 0 -80 0 10 60 10 60 68 0 c73 0 70 -2&#10;84 67 l6 32 -68 3 c-74 3 -70 -1 -58 71 l6 37 73 0 74 0 6 31 c14 74 26 69&#10;-174 69 -178 0 -180 0 -185 -22z"/>
    <path d="M10000 1753 c0 -5 -20 -124 -45 -265 -25 -141 -45 -259 -45 -263 0&#10;-4 96 -5 213 -3 301 4 296 1 343 281 42 250 42 250 -263 255 -114 2 -203 0&#10;-203 -5z m259 -97 c9 -11 6 -46 -13 -155 -25 -138 -38 -181 -56 -181 -4 0 -15&#10;-3 -24 -6 -12 -4 -16 0 -16 16 0 21 48 303 55 328 6 16 40 15 54 -2z"/>
    <path d="M10550 1490 l0 -271 137 3 138 3 50 128 c55 142 62 143 64 12 1 -38&#10;4 -87 7 -108 l7 -38 136 3 136 3 92 255 c50 140 92 261 92 268 1 10 -24 12&#10;-106 10 l-108 -3 -57 -170 -58 -170 7 173 6 172 -115 0 -116 0 -36 -102 c-20&#10;-57 -47 -134 -61 -173 l-25 -70 5 65 c2 36 7 113 11 173 l6 107 -106 0 -106 0&#10;0 -270z"/>
    <path d="M11532 1708 c-11 -29 -56 -149 -101 -266 -45 -116 -81 -214 -81 -217&#10;0 -3 51 -5 114 -5 l114 0 12 50 c12 49 12 50 51 50 l39 0 0 -50 0 -50 110 0&#10;110 0 0 28 c0 49 -21 426 -26 470 l-5 42 -159 0 -159 0 -19 -52z m164 -285&#10;c-7 -17 -80 -18 -74 0 3 6 20 56 39 110 l34 99 3 -98 c1 -54 0 -104 -2 -111z"/>
    <path d="M11968 1593 c45 -167 45 -168 34 -248 -7 -44 -15 -90 -18 -102 -6&#10;-23 -5 -23 98 -23 l103 0 17 99 c17 99 18 100 123 265 58 91 105 168 105 171&#10;0 3 -44 5 -99 5 l-98 0 -45 -97 -46 -98 -8 95 -9 95 -101 3 -101 3 45 -168z"/>
    <path d="M2130 1407 c-18 -9 -54 -68 -132 -222 -121 -237 -126 -259 -68 -286&#10;87 -41 388 -98 517 -99 84 0 83 -2 83 310 0 224 -2 269 -16 288 -15 21 -21 22&#10;-187 22 -116 0 -180 -4 -197 -13z" style="fill: rgb(0, 113, 185);"/>
    <path d="M2616 1404 c-14 -13 -16 -54 -16 -293 0 -217 3 -281 14 -296 12 -16&#10;23 -18 107 -12 131 9 309 41 415 74 132 43 132 35 -2 299 -83 163 -116 219&#10;-136 230 -41 21 -360 20 -382 -2z" style="fill: rgb(0, 113, 185);"/>
    <path d="M1204 1386 c-20 -31 -16 -37 76 -120 139 -125 461 -319 503 -303 9 3&#10;60 94 114 201 88 177 96 197 85 220 l-12 26 -375 0 -375 0 -16 -24z" style="fill: rgb(0, 113, 185);"/>
    <path d="M3152 1398 c-7 -7 -12 -23 -12 -37 1 -33 179 -382 203 -396 56 -33&#10;587 324 587 396 0 10 -7 25 -16 33 -13 14 -62 16 -383 16 -272 0 -370 -3 -379&#10;-12z" style="fill: rgb(0, 113, 185);"/>
  </g>
</svg>