<?xml version="1.0" encoding="UTF-8" standalone="no"?>
<!-- Created by User:Dancraggs for the English Wikipedia -->

<svg
   xmlns:dc="http://purl.org/dc/elements/1.1/"
   xmlns:cc="http://creativecommons.org/ns#"
   xmlns:rdf="http://www.w3.org/1999/02/22-rdf-syntax-ns#"
   xmlns:svg="http://www.w3.org/2000/svg"
   xmlns="http://www.w3.org/2000/svg"
   version="1.1"
   width="358.76721"
   height="120"
   id="svg2985"
   xml:space="preserve"><metadata
     id="metadata2991"><rdf:RDF><cc:Work
         rdf:about=""><dc:format>image/svg+xml</dc:format><dc:type
           rdf:resource="http://purl.org/dc/dcmitype/StillImage" /><dc:title></dc:title></cc:Work></rdf:RDF></metadata><defs
     id="defs2989" /><g
     transform="matrix(1.25,0,0,-1.25,-90.729375,1032.9481)"
     id="g2993"><g
       transform="matrix(0.99844077,0,0,0.99844077,0.11317437,1.1387969)"
       id="g6270"><g
         transform="translate(129.1514,807.8892)"
         id="g5397"><path
           d="M 0,0 C 14.723,-9.357 22.271,8.823 38.119,3.948 39.37,3.427 40.428,2.923 42.209,2.2 L 46.003,0.65 C 36.816,1.526 24.222,-16.845 0,0"
           id="path5399"
           style="fill:#fbbf16;fill-opacity:1;fill-rule:evenodd;stroke:none" /></g><g
         transform="translate(211.752,803.6807)"
         id="g5401"><path
           d="M 0,0 C -10.781,7.682 -19.833,14.052 -29.97,10.583 -11.103,21.1 6.356,16.931 22.824,9.739 -6.133,30.131 -58.145,24.171 -65.993,9.059 -44.73,24.813 -28.221,-1.002 0,0"
           id="path5403"
           style="fill:#fee901;fill-opacity:1;fill-rule:nonzero;stroke:none" /></g><g
         transform="translate(219.5229,797.0508)"
         id="g5405"><path
           d="M 0,0 C -14.728,-3.198 -27.667,-3.167 -42.074,7.631 -29.156,-10.688 -0.973,-18.876 26.983,-14.662 17.592,-11.493 8.122,-5.934 0,0"
           id="path5407"
           style="fill:#f68b1a;fill-opacity:1;fill-rule:nonzero;stroke:none" /></g><g
         transform="translate(297.3833,796.7266)"
         id="g5409"><path
           d="M 0,0 C -34.315,-14.732 -71.123,43.736 -115.599,17.537 -79.806,27.822 -48.912,-43.395 0,0"
           id="path5411"
           style="fill:#ee2722;fill-opacity:1;fill-rule:evenodd;stroke:none" /></g><g
         transform="translate(264.5737,759.8623)"
         id="g5413"><path
           d="m 0,0 c 0,-1.197 1.385,-2.18 4.144,-2.18 2.753,0 4.134,0.983 4.134,2.18 0,1.23 -1.381,2.223 -4.134,2.223 C 1.385,2.223 0,1.23 0,0 m 11.232,0 c 0,-2.457 -2.801,-4.307 -7.088,-4.307 -4.284,0 -7.095,1.85 -7.095,4.307 0,2.473 2.811,4.33 7.095,4.33 4.287,0 7.088,-1.857 7.088,-4.33"
           id="path5415"
           style="fill:#a09d9e;fill-opacity:1;fill-rule:nonzero;stroke:none" /></g><g
         transform="translate(277.1958,755.8154)"
         id="g5417"><path
           d="m 0,0 0,8.028 12.059,0 0,-1.77 -9.407,0 0,-1.693 5.715,0 0,-1.649 -5.715,0 L 2.652,0 0,0 z"
           id="path5419"
           style="fill:#a09d9e;fill-opacity:1;fill-rule:nonzero;stroke:none" /></g><g
         transform="translate(294.9087,761.7061)"
         id="g5421"><path
           d="m 0,0 0,2.138 13.292,0 0,-2.138 -5.32,0 0,-5.891 -2.667,0 L 5.305,0 0,0 z"
           id="path5423"
           style="fill:#a09d9e;fill-opacity:1;fill-rule:nonzero;stroke:none" /></g><g
         transform="translate(311.9927,755.8154)"
         id="g5425"><path
           d="m 0,0 -2.668,0 0,8.028 2.668,0 0,-2.716 7.663,0 0,2.716 2.651,0 0,-8.028 -2.651,0 0,3.168 L 0,3.168 0,0 z"
           id="path5427"
           style="fill:#a09d9e;fill-opacity:1;fill-rule:nonzero;stroke:none" /></g><g
         transform="translate(336.1401,762.0498)"
         id="g5429"><path
           d="m 0,0 -9.646,0 0,-1.359 5.709,0 0,-1.534 -5.709,0 0,-1.572 9.646,0 0,-1.769 -12.302,0 0,8.028 L 0,1.794 0,0 z"
           id="path5431"
           style="fill:#a09d9e;fill-opacity:1;fill-rule:nonzero;stroke:none" /></g><path
         d="m 106.092,773.279 6.14,0 0,-18.579 -6.14,0 0,18.579 z"
         id="path5433"
         style="fill:#7b7678;fill-opacity:1;fill-rule:nonzero;stroke:none" /><g
         transform="translate(123.7471,769.0166)"
         id="g5435"><path
           d="m 0,0 0,-4.285 12.574,0 c 2.754,0 4.1,0.926 4.1,2.14 C 16.674,-0.95 15.356,0 12.625,0 L 0,0 z m 24.906,-14.316 -9.261,0 -9.002,5.846 -6.643,0 0,-5.846 -6.139,0 0,18.579 20.009,0 c 4.951,0 9.713,-2.33 9.713,-6.457 0,-3.073 -2.595,-5.955 -9.184,-5.955 l 10.507,-6.167 z"
           id="path5437"
           style="fill:#7b7678;fill-opacity:1;fill-rule:nonzero;stroke:none" /></g><g
         transform="translate(199.9722,754.0879)"
         id="g5439"><path
           d="m 0,0 c -8.441,0 -15.217,3.047 -15.217,9.106 l 0,10.085 6.244,0 0,-8.972 c 0,-3.386 3.626,-5.083 9.025,-5.083 5.426,0 9.052,1.697 9.052,5.083 l 0,8.972 6.115,0 0,-10.085 C 15.219,3.047 8.442,0 0,0"
           id="path5441"
           style="fill:#7b7678;fill-opacity:1;fill-rule:nonzero;stroke:none" /></g><path
         d="m 220.47,773.279 6.142,0 0,-18.579 -6.142,0 0,18.579 z"
         id="path5443"
         style="fill:#7b7678;fill-opacity:1;fill-rule:nonzero;stroke:none" /><g
         transform="translate(229.9497,768.3271)"
         id="g5445"><path
           d="m 0,0 0,4.952 30.757,0 0,-4.952 -12.31,0 0,-13.627 -6.17,0 L 12.277,0 0,0 z"
           id="path5447"
           style="fill:#7b7678;fill-opacity:1;fill-rule:nonzero;stroke:none" /></g><g
         transform="translate(151.1538,764.0693)"
         id="g5449"><path
           d="m 0,0 c 0,-10.848 20.04,-12.424 29.564,-6.748 l -3.441,4.289 C 21.024,-6.198 6.83,-6.033 6.83,0 c 0,6.033 13.928,6.197 19.031,2.461 l 3.44,4.287 C 19.776,12.424 0,10.847 0,0"
           id="path5451"
           style="fill:#7b7678;fill-opacity:1;fill-rule:nonzero;stroke:none" /></g><g
         transform="translate(72.5835,764.0693)"
         id="g5453"><path
           d="m 0,0 c 0,-10.848 20.04,-12.424 29.565,-6.748 l -3.439,4.289 C 21.024,-6.198 6.832,-6.033 6.832,0 c 0,6.033 13.927,6.197 19.029,2.461 l 3.438,4.287 C 19.776,12.424 0,10.847 0,0"
           id="path5455"
           style="fill:#7b7678;fill-opacity:1;fill-rule:nonzero;stroke:none" /></g><g
         transform="translate(109.3799,745.1279)"
         id="g5457"><path
           d="m 0,0 -4.313,-6.193 10.058,0 L 1.509,0 0,0 z m -6.747,-9.925 -3.045,-4.235 -7.334,0 13.446,18.633 9.133,0 13.446,-18.633 -7.676,0 -3.044,4.235 -14.926,0 z"
           id="path5459"
           style="fill:#ee2722;fill-opacity:1;fill-rule:nonzero;stroke:none" /></g><g
         transform="translate(148.4312,737.4229)"
         id="g5461"><path
           d="m 0,0 9.5,12.122 8.869,0 0,-18.577 -6.14,0 0,13.389 -10.773,-13.389 -3.522,0 -10.586,13.389 0,-13.389 -6.06,0 0,18.577 9.13,0 L 0,0 z"
           id="path5463"
           style="fill:#ee2722;fill-opacity:1;fill-rule:nonzero;stroke:none" /></g><g
         transform="translate(200.6431,745.3926)"
         id="g5465"><path
           d="m 0,0 -22.315,0 0,-3.147 13.209,0 0,-3.549 -13.209,0 0,-3.631 22.315,0 0,-4.098 -28.456,0 0,18.577 L 0,4.152 0,0 z"
           id="path5467"
           style="fill:#ee2722;fill-opacity:1;fill-rule:nonzero;stroke:none" /></g><g
         transform="translate(211,745.2852)"
         id="g5469"><path
           d="m 0,0 0,-4.285 12.573,0 c 2.753,0 4.101,0.923 4.101,2.141 0,1.19 -1.322,2.144 -4.049,2.144 L 0,0 z m 24.907,-14.317 -9.262,0 -9,5.845 -6.645,0 0,-5.845 -6.139,0 0,18.577 20.01,0 c 4.951,0 9.713,-2.326 9.713,-6.458 0,-3.069 -2.595,-5.949 -9.181,-5.949 l 10.504,-6.17 z"
           id="path5471"
           style="fill:#ee2722;fill-opacity:1;fill-rule:nonzero;stroke:none" /></g><path
         d="m 239.492,749.545 6.142,0 0,-18.58 -6.142,0 0,18.58 z"
         id="path5473"
         style="fill:#ee2722;fill-opacity:1;fill-rule:nonzero;stroke:none" /><g
         transform="translate(296.7817,745.1279)"
         id="g5475"><path
           d="m 0,0 -4.311,-6.193 10.056,0 L 1.512,0 0,0 z m -6.747,-9.925 -3.042,-4.235 -7.332,0 13.444,18.633 9.132,0 13.445,-18.633 -7.675,0 -3.043,4.235 -14.929,0 z"
           id="path5477"
           style="fill:#ee2722;fill-opacity:1;fill-rule:nonzero;stroke:none" /></g><g
         transform="translate(316.9868,743.9375)"
         id="g5479"><path
           d="m 0,0 c 0,3.89 4.924,6.428 14.509,6.428 6.218,0 11.088,-1.111 15.031,-3.279 l -2.091,-3.841 c -3.81,2.224 -8.523,2.994 -13.789,2.994 -4.791,0 -6.67,-0.69 -6.67,-1.799 0,-1.086 1.958,-1.484 7.623,-1.512 9.633,-0.052 15.616,-1.267 15.616,-5.609 0,-4.418 -6.617,-6.961 -15.881,-6.961 -6.138,0 -10.879,1.217 -14.981,3.946 l 2.224,3.623 c 3.549,-2.541 8.045,-3.307 13.447,-3.307 6.249,0 8.203,0.977 8.203,2.119 0,1.004 -2.198,1.318 -9.026,1.401 C 5.56,-5.691 0,-4.343 0,0"
           id="path5481"
           style="fill:#ee2722;fill-opacity:1;fill-rule:nonzero;stroke:none" /></g><g
         transform="translate(249.9224,740.3369)"
         id="g5483"><path
           d="m 0,0 c 0,-10.847 20.041,-12.423 29.567,-6.745 l -3.44,4.29 C 21.022,-6.196 6.833,-6.032 6.833,0 c 0,6.034 13.929,6.199 19.028,2.461 L 29.302,6.75 C 19.777,12.426 0,10.848 0,0"
           id="path5485"
           style="fill:#ee2722;fill-opacity:1;fill-rule:nonzero;stroke:none" /></g><g
         transform="translate(348.2642,745.8213)"
         id="g5487"><path
           d="m 0,0 0,0.834 5.173,0 0,-0.834 -2.07,0 0,-2.292 -1.038,0 L 2.065,0 0,0 z"
           id="path5489"
           style="fill:#ee2722;fill-opacity:1;fill-rule:nonzero;stroke:none" /></g><g
         transform="translate(356.9575,744.6143)"
         id="g5491"><path
           d="m 0,0 1.596,2.041 1.492,0 0,-3.126 -1.035,0 0,2.253 -1.81,-2.253 -0.593,0 -1.777,2.253 0,-2.253 -1.022,0 0,3.126 1.536,0 L 0,0 z"
           id="path5493"
           style="fill:#ee2722;fill-opacity:1;fill-rule:nonzero;stroke:none" /></g></g></g></svg>