<?xml version="1.0" encoding="UTF-8" standalone="no"?>
<svg
   width="350"
   height="48.135437"
   fill-rule="evenodd"
   image-rendering="optimizeQuality"
   shape-rendering="geometricPrecision"
   text-rendering="geometricPrecision"
   viewBox="0 0 98.778369 13.584402"
   version="1.1"
   id="svg3"
   xmlns="http://www.w3.org/2000/svg"
   xmlns:svg="http://www.w3.org/2000/svg">
  <defs
     id="defs3" />
  <g
     id="g4"
     transform="matrix(0.34817476,0,0,0.34817476,20.027024,-43.020195)">
    <path
       d="m -23.92706,134.24594 c -3.2323,-0.6631 -11.7131,-3.4896 -13.7807,-4.314 6.184,-0.9397 12.0728,-1.7763 17.6474,-2.4161 5.371,-0.6164 10.4515003,-1.0737 15.2238003,-1.3661 4.53419997,-0.2778 8.7924,-0.4084 12.8213,-0.4544 3.8859997,-0.0445 7.5605997,-0.004 11.0632997,0.0591 -0.0503,1.9841 1.4422,3.7639 5.1931,5.947 -3.014,-0.0922 -6.1619,-0.1684 -9.4863,-0.182 -3.4382,-0.0142 -7.0672997,0.0353 -10.9381997,0.1995 -4.03440003,0.1712 -8.3363,0.4705 -12.8795,0.8857 -4.7046003,0.43 -9.6697003,0.9993 -14.8642003,1.6413 z m 16.3157003,12.1502 c -2.1749,-2.1792 -3.0458003,-3.8809 -6.7445003,-5.6827 5.8010003,-0.5217 10.4728003,-0.9147 14.49130027,-1.1991 3.88830003,-0.2752 7.19260003,-0.4623 10.29579973,-0.5862 5.9354,-0.2372 11.1846,-0.2811 18.0796,-0.2495 1.1995,2.0688 0.9607,3.865 1.221,6.0818 -5.5136,-0.0111 -10.7603,0.0715 -16.5344,0.3367 -6.1114997,0.2806 -12.83569973,0.7987 -20.8087997,1.299 z m 5.8902,10.21 c -2.0346,-0.0306 -2.7402,-1.6783 -1.7293,-3.4042 3.82929997,-0.2945 7.4384,-0.5344 10.8935,-0.7104 3.3501997,-0.1708 6.5558997,-0.2817 9.6722997,-0.3299 5.979,-0.0922 11.5718,0.0614 17.6979,0.0943 0.4298,1.8553 0.8035,3.7389 1.1234,5.6513 -4.4545,-0.2859 -8.5438,-0.5384 -12.3184,-0.7466 -3.9434,-0.2173 -7.4905,-0.3687 -10.7374,-0.4147 -6.7426997,-0.0957 -11.5053997,-0.0498 -14.6019997,-0.1398 z m 57.2224997,-3.8059 c -2.5784,-0.308 -5.3755,-0.5741 -8.414,-0.7999 -3.2073,-0.2383 -6.6887,-0.4327 -10.4728,-0.5616 0,0 -2.3653,-6.5134 -1.216,-6.4328 3.8057,0.2667 7.0028,0.536 9.6421,0.7841 2.5287,0.2378 4.5763,0.4602 6.173,0.6481 3.0597,0.3602 4.6363,0.5581 4.6363,0.5581 -0.7149,1.9399 -0.8502,3.411 -0.3486,5.804 z m 1.2374,6.9376 c -0.3181,-2.0437 0.1661,-4.1394 0.6213,-6.1939 3.9213,0.8076 6.4373,1.3111 8.5022,1.6548 1.9535,0.3252 3.5347,0.5148 5.4076,0.6595 0.0423,1.4079 -0.4692,2.8453 -0.446,4.2631 -1.6662,0.5692 -3.9378,0.7838 -6.3723,0.717 -2.6029,-0.0716 -5.3921,-0.4694 -7.7128,-1.1005 z m 20.3455,-5.668 c 0,0 -1.3591,1.2265 -5.0639,1.1239 0.3463,-2.4712 0.2656,-3.3951 0.6714,-5.7844 1.7968,-0.1921 3.4693,-0.3665 5.0312,-0.5279 -0.1992,1.7191 -0.4124,3.449 -0.6387,5.1884 z m 1.3831,-11.8245 c 0,0 0.2644,0.8174 -5.4215,0.1102 -0.4113,-0.0512 0.1093,-3.2096 0.4148,-4.6648 1.873,0.4693 4.0333,0.5599 5.6069,0.3381 -0.1873,1.3906 -0.3874,2.7961 -0.6002,4.2165 z m -20.3956,-1.5632 c 3.7573,0.9466 6.46,1.5092 8.6688,1.8505 2.0789,0.3213 3.7567,0.4531 5.4112,0.5068 -0.0777,1.7673 -0.18,3.5535 -0.3057,5.3584 -1.5621,0.0275 -3.6348,-0.1109 -5.9695,-0.4173 -2.4957,-0.3274 -5.309,-0.8513 -8.0698,-1.5701 -0.2889,-2.4855 0.2637,-3.2781 0.265,-5.7283 z m 14.4667,-6.7027 c -0.1476,1.0249 -0.3044,2.0606 -0.4705,3.107 -1.7391,-0.4157 -3.6226,-0.8232 -5.6671,-1.2194 -2.1687,-0.4203 -4.5251,-0.8296 -7.0898,-1.2236 0.5495,-1.4586 1.0776,-2.8868 1.5845,-4.2855 2.3335,0.6141 4.479,1.2323 6.4553,1.8521 1.8699,0.5865 3.5942,1.177 5.1876,1.7694 z m -42.5782,-1.5757 c 6.4716,0.3439 11.2302,0.6573 15.4325,1.1013 3.9325,0.4154 7.4073,0.9274 11.3591,1.5331 0.0882,1.1159 -0.1217,4.5718 -0.1217,4.5718 -2.9999,-0.4386 -6.2886,-0.8823 -9.9041,-1.1909 -3.9723,-0.339 -8.3482,-0.5067 -13.1679,-0.6277 -1.0903,-1.8213 -2.2874,-3.6169 -3.5979,-5.3876 z m -79.9475,-2.2812 c 0,0 -7.6087,1.5489 -7.5322,1.8438 0.0192,0.0738 3.5102,0.6803 8.4065,1.9306 4.8849,1.2474 11.0126,3.2102 16.6074,5.7895 5.6118,2.5872 10.6669,5.8251 14.6998,9.1961 4.0507,3.3858 6.9264,6.9895 9.3334003,9.8932 4.5156,0.1702 9.25539997,0.1897 13.9464,0.1855 4.504,-0.004 8.9472997,-0.0231 13.1141997,0.0652 4.0413,0.0856 7.8451,0.2456 11.4254,0.4516 3.4262,0.1971 6.6484,0.4373 9.6786,0.6959 4.5702,0.39 8.8343,0.877 12.7007,1.3412 3.5831,0.4302 6.8367,0.8163 9.8598,0.956 2.7547,0.1274 5.3631,0.1802 7.8084,-0.2186 2.2735,-0.3707 4.4076,-1.1338 6.395,-2.6115 0.6536,-0.4859 1.3647,-0.9601 1.7661,-1.7161 -0.0225,-0.4411 -0.102,-0.8439 -0.0696,-1.3289 0.3719,-5.5726 2.2517,-11.9275 2.5604,-17.3648 0.1097,-1.9308 0.5522,-3.418 0.3308,-5.2322 0,0 -1.0576,0.3484 -3.0194,0.2806 -1.1676,-0.0402 -2.6122,-0.4049 -4.3389,-0.9512 -1.8333,-0.58 -4.0162,-1.374 -6.5652,-2.2261 -2.7368,-0.9148 -6,-1.8602 -9.6451,-2.7102 -3.9489,-0.9208 -8.4666,-1.6658 -12.9602,-2.2532 -4.3788,-0.5724 -9.1737,-1.158 -14.6353,-1.5417 -2.8912,-0.2031 -5.9558,-0.3602 -9.1909,-0.4626 -3.3525,-0.1062 -6.8897,-0.1527 -10.607,-0.123 -3.8931997,0.0312 -7.9932997,0.1444 -12.2886997,0.3567 -4.4506,0.22 -9.1103003,0.5453 -13.9629003,0.996 -5.1168,0.4751 -10.467,1.1134 -16.0144,1.8969 -5.7423,0.8111 -11.6899,1.8021 -17.8032,2.8612 z m 140.813,4.3922 c -0.0741,1.2484 -0.1574,2.4964 -0.2489,3.7432 -2.5441,-1.9382 -4.1677,-2.8158 -6.7557,-4.1316 0.1806,-1.6915 -0.0734,-3.4984 -0.3522,-5.3171 2.8177,1.7564 5.5367,3.6371 7.3568,5.7055 z m 5.5346,3.0181 c -0.8179,-0.8073 -2.0539,-1.5279 -3.0546,-2.4412 -1.4004,-1.278 -2.9137,-2.6707 -4.6043,-4.0225 -1.7461,-1.3963 -3.703,-2.784 -5.9396,-3.959 -2.4131,-1.2677 -5.1791,-2.4024 -8.3938,-3.1234 -1.1599,-0.2601 -2.6518,-0.7081 -3.1863,-0.2274 -0.227,0.2044 2.7508,1.7427 5.4482,3.7618 2.4892,1.8634 5.2285,3.9775 5.6436,5.9248 0.2901,1.3614 0.3441,3.8213 0.3066,5.6911 -0.5366,-0.0697 -0.43,-0.2493 -0.9697,-0.4132 -0.2062,1.5 -0.3249,4.1486 -0.3382,5.7233 0.4204,0.1424 1.2944,0.6461 1.6855,0.7554 -0.0548,1.8062 -0.1254,3.3717 -0.1796,4.982 -1.1485,-0.1659 -2.7435,-0.8879 -2.7435,-0.8879 -0.0843,1.4655 -0.7074,3.8501 -0.4513,5.276 1.7505,0.3779 3.3381,0.766 4.9003,0.9894 0.0974,-0.347 0.1993,-0.6914 0.3056,-1.0333 -0.4216,-0.0934 -0.8468,-0.1991 -1.2815,-0.3095 0,0 0.0874,-2.6259 0.1979,-3.3095 0.7472,0.2019 1.4688,0.3924 2.1864,0.5458 0.703,-1.7205 1.5231,-3.3593 2.4478,-4.9014 -1.3386,-0.4713 -2.7159,-1.0226 -4.1533,-1.6455 0.0266,-1.754 0.0369,-3.2999 -0.3319,-5.0281 2.3032,1.2233 4.4266,2.318 6.4541,3.2568 0.001,0.1641 -0.002,0.3306 -0.0083,0.4989 0.2191,-0.2918 0.4424,-0.579 0.6696,-0.8615 0.0635,-1.035 0.0485,-2.2691 0.1681,-3.4645 0.6242,0.4061 1.2507,0.7918 1.8814,1.156 1.0506,-1.0716 2.167,-2.0528 3.3408,-2.9334 z m -15.5161,-4.9161 c 0,0 -1.0263,-1.6286 -2.8476,-3.203 -0.8413,-0.7272 -2.5606,-2.1609 -4.3788,-3.3694 -1.9192,-1.2757 -3.9367,-2.3088 -4.3335,-2.238 -0.8394,0.1496 -0.4771,0.3118 -0.4771,0.3118 0.9974,2.5458 1.8369,5.1143 2.5368,7.7085 0,0 4.4763,1.9451 7.7634,1.945 0,0 1.3747,-0.008 1.6361,-0.2643 0.2592,-0.2541 0.1007,-0.8906 0.1007,-0.8906 z"
       id="path3"
       style="display:inline" />
    <path
       d="m 192.59039,134.24594 c 3.2323,-0.6631 11.71311,-3.4896 13.78071,-4.314 -6.184,-0.9397 -12.07281,-1.7763 -17.64741,-2.4161 -5.371,-0.6164 -10.4515,-1.0737 -15.2238,-1.3661 -4.5342,-0.2778 -8.79241,-0.4084 -12.82131,-0.4544 -3.886,-0.0445 -7.5606,-0.004 -11.0633,0.0591 0.0503,1.9841 -1.4422,3.7639 -5.1931,5.947 3.014,-0.0922 6.1619,-0.1684 9.4863,-0.182 3.4382,-0.0142 7.0673,0.0353 10.9382,0.1995 4.03441,0.1712 8.33631,0.4705 12.87951,0.8857 4.7046,0.43 9.6697,0.9993 14.8642,1.6413 z m -16.3157,12.1502 c 2.1749,-2.1792 3.0458,-3.8809 6.7445,-5.6827 -5.801,-0.5217 -10.4728,-0.9147 -14.4913,-1.1991 -3.88831,-0.2752 -7.19261,-0.4623 -10.29581,-0.5862 -5.9354,-0.2372 -11.1846,-0.2811 -18.0796,-0.2495 -1.19951,2.0688 -0.96071,3.865 -1.22101,6.0818 5.51361,-0.0111 10.76031,0.0715 16.53441,0.3367 6.1115,0.2806 12.83571,0.7987 20.80881,1.299 z m -5.8902,10.21 c 2.0346,-0.0306 2.7402,-1.6783 1.7293,-3.4042 -3.8293,-0.2945 -7.43841,-0.5344 -10.89351,-0.7104 -3.3502,-0.1708 -6.5559,-0.2817 -9.6723,-0.3299 -5.979,-0.0922 -11.5718,0.0614 -17.69791,0.0943 -0.4298,1.8553 -0.8035,3.7389 -1.1234,5.6513 4.4545,-0.2859 8.54381,-0.5384 12.31841,-0.7466 3.9434,-0.2173 7.4905,-0.3687 10.7374,-0.4147 6.7427,-0.0957 11.5054,-0.0498 14.60201,-0.1398 z m -57.22252,-3.8059 c 2.5784,-0.308 5.3755,-0.5741 8.414,-0.7999 3.2073,-0.2383 6.6887,-0.4327 10.4728,-0.5616 0,0 2.3653,-6.5134 1.216,-6.4328 -3.8057,0.2667 -7.0028,0.536 -9.6421,0.7841 -2.5287,0.2378 -4.5763,0.4602 -6.173,0.6481 -3.0597,0.3602 -4.6363,0.5581 -4.6363,0.5581 0.7149,1.9399 0.8502,3.411 0.3486,5.804 z m -1.2374,6.9376 c 0.3181,-2.0437 -0.1661,-4.1394 -0.6213,-6.1939 -3.92131,0.8076 -6.43731,1.3111 -8.50221,1.6548 -1.9535,0.3252 -3.534698,0.5148 -5.407598,0.6595 -0.0423,1.4079 0.4692,2.8453 0.446,4.2631 1.6662,0.5692 3.937798,0.7838 6.372298,0.717 2.6029,-0.0716 5.3921,-0.4694 7.71281,-1.1005 z m -20.345506,-5.668 c 0,0 1.3591,1.2265 5.063898,1.1239 -0.3463,-2.4712 -0.2656,-3.3951 -0.6714,-5.7844 -1.796798,-0.1921 -3.469298,-0.3665 -5.031198,-0.5279 0.1992,1.7191 0.4124,3.449 0.6387,5.1884 z m -1.3831,-11.8245 c 0,0 -0.2644,0.8174 5.421498,0.1102 0.4113,-0.0512 -0.1093,-3.2096 -0.4148,-4.6648 -1.872998,0.4693 -4.033298,0.5599 -5.606898,0.3381 0.1873,1.3906 0.3874,2.7961 0.6002,4.2165 z m 20.395596,-1.5632 c -3.7573,0.9466 -6.46,1.5092 -8.6688,1.8505 -2.078898,0.3213 -3.756698,0.4531 -5.411198,0.5068 0.0777,1.7673 0.18,3.5535 0.3057,5.3584 1.5621,0.0275 3.634798,-0.1109 5.969498,-0.4173 2.4957,-0.3274 5.309,-0.8513 8.0698,-1.5701 0.2889,-2.4855 -0.2637,-3.2781 -0.265,-5.7283 z m -14.466698,-6.7027 c 0.1476,1.0249 0.3044,2.0606 0.4705,3.107 1.7391,-0.4157 3.622598,-0.8232 5.667098,-1.2194 2.1687,-0.4203 4.5251,-0.8296 7.0898,-1.2236 -0.5495,-1.4586 -1.0776,-2.8868 -1.5845,-4.2855 -2.3335,0.6141 -4.479,1.2323 -6.4553,1.8521 -1.869898,0.5865 -3.594198,1.177 -5.187598,1.7694 z m 42.578208,-1.5757 c -6.4716,0.3439 -11.2302,0.6573 -15.4325,1.1013 -3.9325,0.4154 -7.4073,0.9274 -11.3591,1.5331 -0.0882,1.1159 0.1217,4.5718 0.1217,4.5718 2.9999,-0.4386 6.2886,-0.8823 9.9041,-1.1909 3.9723,-0.339 8.3482,-0.5067 13.1679,-0.6277 1.0903,-1.8213 2.2874,-3.6169 3.5979,-5.3876 z m 79.94753,-2.2812 c 0,0 7.60871,1.5489 7.53221,1.8438 -0.0192,0.0738 -3.51021,0.6803 -8.40651,1.9306 -4.8849,1.2474 -11.0126,3.2102 -16.6074,5.7895 -5.61181,2.5872 -10.66691,5.8251 -14.69981,9.1961 -4.0507,3.3858 -6.9264,6.9895 -9.3334,9.8932 -4.5156,0.1702 -9.2554,0.1897 -13.94641,0.1855 -4.504,-0.004 -8.9473,-0.0231 -13.1142,0.0652 -4.0413,0.0856 -7.8451,0.2456 -11.42541,0.4516 -3.4262,0.1971 -6.6484,0.4373 -9.6786,0.6959 -4.5702,0.39 -8.8343,0.877 -12.7007,1.3412 -3.5831,0.4302 -6.83671,0.8163 -9.85981,0.956 -2.7547,0.1274 -5.3631,0.1802 -7.808398,-0.2186 -2.2735,-0.3707 -4.407598,-1.1338 -6.394998,-2.6115 -0.6536,-0.4859 -1.3647,-0.9601 -1.7661,-1.7161 0.0225,-0.4411 0.102,-0.8439 0.0696,-1.3289 -0.3719,-5.5726 -2.251698,-11.9275 -2.560398,-17.3648 -0.1097,-1.9308 -0.5522,-3.418 -0.3308,-5.2322 0,0 1.0576,0.3484 3.019398,0.2806 1.1676,-0.0402 2.6122,-0.4049 4.338898,-0.9512 1.8333,-0.58 4.0162,-1.374 6.565198,-2.2261 2.7368,-0.9148 6,-1.8602 9.6451,-2.7102 3.94891,-0.9208 8.46661,-1.6658 12.96021,-2.2532 4.3788,-0.5724 9.1737,-1.158 14.6353,-1.5417 2.89121,-0.2031 5.95581,-0.3602 9.19091,-0.4626 3.3525,-0.1062 6.8897,-0.1527 10.607,-0.123 3.8932,0.0312 7.9933,0.1444 12.28871,0.3567 4.4506,0.22 9.1103,0.5453 13.9629,0.996 5.1168,0.4751 10.467,1.1134 16.01441,1.8969 5.7423,0.8111 11.6899,1.8021 17.8032,2.8612 z m -140.813042,4.3922 c 0.0741,1.2484 0.1574,2.4964 0.2489,3.7432 2.5441,-1.9382 4.1677,-2.8158 6.755708,-4.1316 -0.1806,-1.6915 0.0734,-3.4984 0.3522,-5.3171 -2.817708,1.7564 -5.536708,3.6371 -7.356808,5.7055 z m -5.534598,3.0181 c 0.8179,-0.8073 2.0539,-1.5279 3.0546,-2.4412 1.4004,-1.278 2.913698,-2.6707 4.604298,-4.0225 1.7461,-1.3963 3.703008,-2.784 5.939608,-3.959 2.4131,-1.2677 5.179098,-2.4024 8.393798,-3.1234 1.159898,-0.2601 2.651798,-0.7081 3.186298,-0.2274 0.227,0.2044 -2.7508,1.7427 -5.448198,3.7618 -2.4892,1.8634 -5.228498,3.9775 -5.643598,5.9248 -0.2901,1.3614 -0.3441,3.8213 -0.3066,5.6911 0.5366,-0.0697 0.43,-0.2493 0.9697,-0.4132 0.2062,1.5 0.3249,4.1486 0.3382,5.7233 -0.4204,0.1424 -1.2944,0.6461 -1.6855,0.7554 0.0548,1.8062 0.1254,3.3717 0.1796,4.982 1.1485,-0.1659 2.7435,-0.8879 2.7435,-0.8879 0.0843,1.4655 0.707398,3.8501 0.451298,5.276 -1.750498,0.3779 -3.338098,0.766 -4.900298,0.9894 -0.0974,-0.347 -0.1993,-0.6914 -0.3056,-1.0333 0.4216,-0.0934 0.8468,-0.1991 1.2815,-0.3095 0,0 -0.0874,-2.6259 -0.1979,-3.3095 -0.7472,0.2019 -1.4688,0.3924 -2.186408,0.5458 -0.703,-1.7205 -1.5231,-3.3593 -2.4478,-4.9014 1.3386,-0.4713 2.7159,-1.0226 4.153308,-1.6455 -0.0266,-1.754 -0.0369,-3.2999 0.3319,-5.0281 -2.303208,1.2233 -4.426608,2.318 -6.454108,3.2568 -10e-4,0.1641 0.002,0.3306 0.008,0.4989 -0.2191,-0.2918 -0.4424,-0.579 -0.6696,-0.8615 -0.0635,-1.035 -0.0485,-2.2691 -0.1681,-3.4645 -0.624198,0.4061 -1.250698,0.7918 -1.881398,1.156 -1.0506,-1.0716 -2.167,-2.0528 -3.3408,-2.9334 z m 15.516106,-4.9161 c 0,0 1.026298,-1.6286 2.847598,-3.203 0.8413,-0.7272 2.5606,-2.1609 4.378798,-3.3694 1.9192,-1.2757 3.9367,-2.3088 4.3335,-2.238 0.839398,0.1496 0.4771,0.3118 0.4771,0.3118 -0.9974,2.5458 -1.8369,5.1143 -2.5368,7.7085 0,0 -4.476298,1.9451 -7.763398,1.945 0,0 -1.374698,-0.008 -1.636098,-0.2643 -0.2592,-0.2541 -0.1007,-0.8906 -0.1007,-0.8906 z"
       id="path4"
       style="display:inline" />
  </g>
</svg>
